<svg xmlns="http://www.w3.org/2000/svg" width="800" height="401">
  <path d="M 2.964931 224.252029 L -2.202932 186.796585 L -7.046816 150.660431 L -11.254224 117.116119 L -14.535233 87.344269 L -16.632759 62.391758 L -17.331675 43.134644 L -16.466448 30.246984 L -13.926989 24.177086 L -9.662576 25.131500 L -3.683643 33.067726 L 3.938590 47.695766 L 13.074655 68.488396 L 23.541393 94.699738 L 35.108479 125.391899 L 47.506573 159.468063 L 60.436882 195.711487 L 73.581711 232.828476 L 86.615791 269.494507 L 99.217789 304.401001 L 111.081650 336.301666 L 121.927521 364.056885 L 131.511642 386.674042 L 139.634949 403.342529 L 146.150223 413.462830 L 150.967209 416.667450 L 154.055908 412.834137 L 155.447556 402.090210 L 155.233597 384.807922 L 153.562347 361.591309 L 150.633865 333.254944 L 146.692657 300.794708 L 142.019257 265.352814 L 136.920135 228.177307 L 131.716782 190.577393 L 126.734497 153.877640 L 122.290627 119.370392 L 118.683502 88.270592 L 116.181770 61.672043 L 115.014862 40.509235 L 115.364944 25.523842 L 117.360352 17.238449 L 121.071075 15.938187 L 126.506340 21.660496 L 133.614197 34.193932 L 142.283386 53.085388 L 152.347321 77.656464 L 163.589996 107.027573 L 175.753494 140.148438 L 188.547363 175.836304 L 201.658768 212.817245 L 214.763718 249.771729 L 227.538208 285.380707 L 239.670105 318.372894 L 250.870087 347.570160 L 260.881836 371.928680 L 269.491150 390.576324 L 276.533539 402.843079 L 281.900085 408.285583 L 285.541260 406.702179 L 287.468781 398.140350 L 287.755035 382.895050 L 286.530670 361.498108 L 283.979736 334.699371 L 280.333588 303.440582 L 275.862183 268.821198 L 270.864777 232.059982 L 265.659302 194.451416 L 260.571167 157.320602 L 255.921463 121.975151 L 252.015732 89.659378 L 249.133331 61.510693 L 247.517136 38.518261 L 247.365189 21.488594 L 248.823685 11.016809 L 251.981659 7.465625 L 256.867889 10.952210 L 263.449921 21.344412 L 271.635162 38.265015 L 281.274109 61.105526 L 292.165833 89.047516 L 304.064972 121.091881 L 316.690338 156.093552 L 329.735107 192.803101 L 342.877594 229.910568 L 355.792480 266.091187 L 368.162781 300.054260 L 379.690643 330.586670 L 390.108002 356.597015 L 399.186462 377.155029 L 406.744812 391.522919 L 412.655823 399.182556 L 416.850708 399.853943 L 419.321533 393.504486 L 420.121429 380.350830 L 419.362793 360.850433 L 417.213287 335.686371 L 413.889832 305.741730 L 409.651031 272.069672 L 404.788055 235.855804 L 399.613892 198.374664 L 394.452850 160.946823 L 389.628601 124.890640 L 385.452972 91.475769 L 382.214844 61.878574 L 380.169647 37.139153 L 379.530762 18.126440 L 380.461487 5.505514 L 383.069641 -0.284576 L 387.403503 0.952721 L 393.450226 9.164965 L 401.136169 24.052357 L 410.329498 45.078205 L 420.845184 71.488831 L 432.451050 102.339058 L 444.876373 136.526108 L 457.821503 172.829956 L 470.968109 209.954132 L 483.990967 246.574539 L 496.569122 281.383820 L 508.397186 313.138916 L 519.196838 340.705933 L 528.725830 363.098572 L 536.787048 379.514130 L 543.235474 389.362274 L 547.983215 392.285034 L 551.002808 388.170227 L 552.327820 377.154999 L 552.052124 359.621277 L 550.326233 336.182281 L 547.352051 307.659943 L 543.375916 275.057373 L 538.679382 239.521210 L 533.569763 202.302994 L 528.369141 164.714035 L 523.402405 128.077591 L 518.986511 93.684319 L 515.418884 62.745251 L 512.966553 36.348034 L 511.857361 15.420270 L 512.271423 0.695395 L 514.334717 -7.313466 L 518.114929 -8.330846 L 523.618774 -2.329397 L 530.791809 10.469604 L 539.520569 29.603458 L 549.636292 54.385544 L 560.921143 83.928444 L 573.115662 117.175713 L 585.928467 152.940674 L 599.046021 189.946320 L 612.143677 226.871643 L 624.898315 262.399597 L 636.998230 295.261566 L 648.155151 324.283508 L 658.114502 348.428436 L 666.663635 366.831207 L 673.640503 378.831116 L 678.938354 383.993835 L 682.510071 382.127716 L 684.369934 373.290283 L 684.592651 357.786194 L 683.311157 336.156677 L 680.711548 309.159637 L 677.026794 277.743652 L 672.528381 243.014328 L 667.516357 206.193619 L 662.309326 168.578659 L 657.232727 131.494781 L 652.607056 96.247375 L 648.737305 64.078140 L 645.901306 36.118328 L 644.340393 13.350940 L 644.250610 -3.425479 L 645.776062 -13.624787 L 649.003296 -16.894007 L 653.958618 -13.126016 L 660.607178 -2.462888 L 668.854004 14.708651 L 678.547485 37.771191 L 689.484558 65.897774 L 701.418457 98.083725 L 714.066772 133.178741 L 727.121704 169.929932 L 740.261292 207.025665 L 753.160400 243.142090 L 765.502380 276.989441 L 776.990540 307.360443 L 787.358398 333.168945 L 796.378967 353.491241 L 803.873230 367.598267 L 809.716248 374.981079 L 813.841736 375.369629 L 816.244019 368.741272 L 816.978760 355.322327 L 816.160706 335.579956 L 813.959473 310.205444 L 810.594299 280.090454 L 806.324646 246.292816 L 801.442932 210.002716 " stroke="lime" fill="none" stroke-width="2"/>
</svg>