<svg xmlns="http://www.w3.org/2000/svg" width="1580" height="1000" viewBox="0 0 1580 1000" style="background:#1e1e2e">
  <g transform="translate(0.000000,0.000000) scale(0.800000)">
    <path d="M 175.000 175.000 L 225.000 175.000 L 225.000 225.000 L 175.000 225.000 L 175.000 175.000 " transform="translate(0.000000,0.000000) scale(0.800000)" stroke="lime" fill="none" stroke-width="2"/>
    <path d="M 100.000 300.000 L 220.000 300.000 L 220.000 360.000 L 100.000 360.000 L 100.000 300.000 " transform="translate(0.000000,0.000000) scale(0.800000)" stroke="lime" fill="none" stroke-width="2"/>
    <path d="M 400.000 131.947 L 464.721 178.970 L 440.000 255.055 L 360.000 255.055 L 335.278 178.970 L 400.000 131.947 " transform="translate(0.000000,0.000000) scale(0.800000)" stroke="lime" fill="none" stroke-width="2"/>
    <path d="M 600.000 283.047 L 675.175 310.409 L 715.175 379.691 L 701.283 458.476 L 640.000 509.899 L 560.000 509.899 L 498.716 458.476 L 484.824 379.691 L 524.824 310.409 L 600.000 283.047 " transform="translate(0.000000,0.000000) scale(0.800000)" stroke="lime" fill="none" stroke-width="2"/>
    <path d="M 301.000 101.000 L 301.000 300.000 L 700.000 300.000 L 301.000 101.000 " transform="translate(0.000000,0.000000) scale(0.800000)" stroke="lime" fill="none" stroke-width="2"/>
    <path d="M 467.657 107.673 L 507.657 176.955 L 493.766 255.739 L 432.482 307.162 L 352.482 307.162 L 291.198 255.739 L 277.307 176.955 L 317.307 107.673 L 392.482 80.311 L 467.657 107.673 " transform="translate(0.000000,0.000000) scale(0.800000)" stroke="lime" fill="none" stroke-width="2"/>
    <path d="M 0.000 500.000 L 7.900 406.309 L 15.799 315.937 L 23.699 232.086 L 31.599 157.726 L 39.499 95.491 L 47.399 47.586 L 55.299 15.708 L 63.199 0.986 L 71.099 3.942 L 78.999 24.471 L 86.899 61.846 L 94.799 114.743 L 102.699 181.287 L 110.599 259.123 L 118.499 345.491 L 126.399 437.333 L 134.300 531.395 L 142.200 624.345 L 150.100 712.889 L 158.000 793.892 L 165.900 864.484 L 173.800 922.164 L 181.700 964.888 L 189.600 991.143 L 197.500 1000.000 L 205.400 991.143 L 213.300 964.888 L 221.199 922.163 L 229.099 864.484 L 236.999 793.892 L 244.899 712.889 L 252.799 624.345 L 260.699 531.395 L 268.599 437.333 L 276.499 345.492 L 284.399 259.123 L 292.299 181.288 L 300.199 114.743 L 308.099 61.847 L 315.999 24.471 L 323.899 3.942 L 331.799 0.986 L 339.699 15.708 L 347.599 47.585 L 355.499 95.490 L 363.399 157.725 L 371.299 232.085 L 379.199 315.936 L 387.099 406.307 L 394.999 499.998 L 402.899 593.688 L 410.799 684.060 L 418.699 767.911 L 426.599 842.272 L 434.499 904.507 L 442.399 952.412 L 450.299 984.291 L 458.199 999.013 L 466.099 996.057 L 473.999 975.528 L 481.899 938.154 L 489.799 885.258 L 497.699 818.714 L 505.599 740.879 L 513.499 654.511 L 521.399 562.669 L 529.299 468.607 L 537.199 375.658 L 545.099 287.113 L 552.999 206.110 L 560.899 135.518 L 568.799 77.837 L 576.699 35.113 L 584.599 8.857 L 592.499 0.000 L 600.399 8.855 L 608.299 35.110 L 616.199 77.833 L 624.099 135.512 L 631.999 206.104 L 639.899 287.106 L 647.799 375.650 L 655.699 468.600 L 663.599 562.662 L 671.499 654.504 L 679.399 740.873 L 687.299 818.707 L 695.199 885.253 L 703.099 938.150 L 710.999 975.526 L 718.899 996.056 L 726.799 999.013 L 734.699 984.292 L 742.599 952.415 L 750.499 904.511 L 758.399 842.277 L 766.299 767.918 L 774.199 684.067 L 782.099 593.696 L 789.999 500.005 L 797.899 406.314 L 805.799 315.942 L 813.699 232.091 L 821.599 157.730 L 829.499 95.494 L 837.399 47.588 L 845.299 15.709 L 853.199 0.987 L 861.099 3.941 L 868.999 24.469 L 876.899 61.843 L 884.799 114.739 L 892.699 181.283 L 900.599 259.117 L 908.499 345.484 L 916.399 437.326 L 924.299 531.388 L 932.199 624.338 L 940.099 712.883 L 947.999 793.887 L 955.899 864.479 L 963.799 922.159 L 971.699 964.885 L 979.599 991.142 L 987.499 1000.000 L 995.399 991.145 L 1003.299 964.890 L 1011.199 922.167 L 1019.099 864.489 L 1026.999 793.899 L 1034.899 712.897 L 1042.799 624.352 L 1050.699 531.403 L 1058.599 437.341 L 1066.499 345.499 L 1074.399 259.130 L 1082.299 181.294 L 1090.199 114.749 L 1098.099 61.850 L 1105.999 24.474 L 1113.899 3.943 L 1121.799 0.986 L 1129.699 15.706 L 1137.599 47.582 L 1145.499 95.485 L 1153.399 157.719 L 1161.299 232.078 L 1169.199 315.928 L 1177.099 406.299 L 1184.999 499.990 L 1192.899 593.681 L 1200.799 684.053 L 1208.699 767.904 L 1216.599 842.266 L 1224.499 904.502 L 1232.399 952.409 L 1240.299 984.289 L 1248.199 999.012 L 1256.099 996.058 L 1263.999 975.531 L 1271.899 938.158 L 1279.799 885.263 L 1287.699 818.720 L 1295.598 740.886 L 1303.499 654.518 L 1311.399 562.677 L 1319.299 468.615 L 1327.198 375.666 L 1335.098 287.120 L 1342.999 206.115 L 1350.899 135.522 L 1358.798 77.842 L 1366.698 35.116 L 1374.598 8.858 L 1382.499 0.000 L 1390.398 8.854 L 1398.298 35.107 L 1406.198 77.829 L 1414.098 135.507 L 1421.998 206.097 L 1429.898 287.099 L 1437.798 375.643 L 1445.698 468.592 L 1453.598 562.654 L 1461.498 654.497 L 1469.398 740.866 L 1477.298 818.701 L 1485.198 885.247 L 1493.098 938.146 L 1500.998 975.524 L 1508.898 996.055 L 1516.798 999.014 L 1524.698 984.294 L 1532.598 952.419 L 1540.498 904.516 L 1548.398 842.283 L 1556.298 767.924 L 1564.198 684.074 L 1572.098 593.703 " transform="translate(0.000000,0.000000) scale(0.800000)" stroke="lime" fill="none" stroke-width="2"/>
  </g>
</svg>