<svg xmlns="http://www.w3.org/2000/svg" width="800" height="401">
  <rect width="100%" height="100%" fill="black"/>
  <path d="M 2.966 224.812 L -2.197 187.278 L -7.038 151.065 L -11.243 117.447 L -14.522 87.606 L -16.620 62.592 L -17.320 43.280 L -16.458 30.348 L -13.923 24.245 L -9.665 25.177 L -3.693 33.103 L 3.920 47.734 L 13.048 68.544 L 23.506 94.785 L 35.064 125.520 L 47.455 159.651 L 60.379 195.961 L 73.520 233.154 L 86.553 269.905 L 99.155 304.902 L 111.023 336.898 L 121.876 364.750 L 131.469 387.462 L 139.605 404.223 L 146.135 414.428 L 150.968 417.709 L 154.075 413.940 L 155.486 403.245 L 155.290 385.996 L 153.637 362.795 L 150.725 334.454 L 146.798 301.970 L 142.135 266.484 L 137.043 229.244 L 131.843 191.562 L 126.859 154.764 L 122.408 120.144 L 118.790 88.921 L 116.272 62.191 L 115.085 40.893 L 115.412 25.773 L 117.380 17.358 L 121.062 15.937 L 126.468 21.552 L 133.546 33.995 L 142.187 52.817 L 152.224 77.343 L 163.444 106.695 L 175.590 139.824 L 188.371 175.548 L 201.475 212.594 L 214.580 249.640 L 227.361 285.364 L 239.506 318.494 L 250.726 347.845 L 260.764 372.371 L 269.405 391.194 L 276.483 403.637 L 281.888 409.253 L 285.570 407.832 L 287.539 399.417 L 287.865 384.297 L 286.678 363.000 L 284.161 336.270 L 280.542 305.046 L 276.092 270.427 L 271.108 233.628 L 265.908 195.946 L 260.816 158.707 L 256.153 123.221 L 252.226 90.736 L 249.314 62.396 L 247.660 39.194 L 247.465 21.945 L 248.875 11.250 L 251.982 7.481 L 256.816 10.761 L 263.346 20.966 L 271.481 37.726 L 281.075 60.439 L 291.927 88.290 L 303.795 120.286 L 316.398 155.283 L 329.430 192.034 L 342.571 229.227 L 355.495 265.537 L 367.886 299.668 L 379.445 330.403 L 389.903 356.645 L 399.030 377.454 L 406.644 392.086 L 412.616 400.013 L 416.874 400.945 L 419.409 394.842 L 420.272 381.910 L 419.572 362.599 L 417.474 337.585 L 414.195 307.745 L 409.990 274.127 L 405.149 237.914 L 399.985 200.380 L 394.821 162.845 L 389.980 126.632 L 385.775 93.014 L 382.495 63.173 L 380.398 38.158 L 379.697 18.847 L 380.560 5.914 L 383.094 -0.189 L 387.353 0.742 L 393.324 8.668 L 400.938 23.298 L 410.065 44.107 L 420.523 70.348 L 432.082 101.083 L 444.473 135.213 L 457.397 171.523 L 470.538 208.716 L 483.570 245.467 L 496.173 280.465 L 508.041 312.461 L 518.893 340.313 L 528.487 363.026 L 536.623 379.787 L 543.153 389.993 L 547.987 393.274 L 551.093 389.505 L 552.504 378.812 L 552.309 361.563 L 550.656 338.362 L 547.744 310.022 L 543.817 277.538 L 539.154 242.052 L 534.062 204.813 L 528.862 167.131 L 523.878 130.332 L 519.427 95.712 L 515.809 64.488 L 513.291 37.758 L 512.104 16.460 L 512.430 1.339 L 514.399 -7.076 L 518.080 -8.497 L 523.486 -2.883 L 530.564 9.559 L 539.204 28.381 L 549.242 52.906 L 560.462 82.257 L 572.607 115.386 L 585.388 151.111 L 598.492 188.156 L 611.597 225.202 L 624.378 260.927 L 636.523 294.056 L 647.744 323.408 L 657.781 347.935 L 666.422 366.758 L 673.501 379.202 L 678.906 384.818 L 682.588 383.398 L 684.557 374.983 L 684.884 359.864 L 683.697 338.567 L 681.180 311.838 L 677.561 280.614 L 673.111 245.995 L 668.127 209.197 L 662.927 171.515 L 657.835 134.276 L 653.172 98.789 L 649.245 66.304 L 646.332 37.963 L 644.679 14.761 L 644.484 -2.488 L 645.894 -13.183 L 649.000 -16.953 L 653.834 -13.674 L 660.363 -3.469 L 668.499 13.290 L 678.092 36.002 L 688.945 63.853 L 700.812 95.848 L 713.415 130.845 L 726.447 167.596 L 739.588 204.789 L 752.513 241.099 L 764.903 275.231 L 776.462 305.966 L 786.920 332.208 L 796.048 353.018 L 803.662 367.650 L 809.634 375.577 L 813.893 376.510 L 816.428 370.408 L 817.290 357.476 L 816.590 338.166 L 814.493 313.152 L 811.213 283.313 L 807.009 249.695 L 802.168 213.482 " stroke="lime" fill="none" stroke-width="2"/>
</svg>
