<svg xmlns="http://www.w3.org/2000/svg" width="800" height="401">
  <rect width="100%" height="100%" fill="black"/>
  <path d="M 0.000 200.500 L 4.000 162.930 L 8.000 126.691 L 12.000 93.066 L 16.000 63.248 L 19.999 38.292 L 23.999 19.082 L 27.999 6.299 L 31.999 0.395 L 35.999 1.580 L 39.999 9.813 L 43.999 24.800 L 47.999 46.012 L 51.999 72.696 L 55.999 103.908 L 59.999 138.542 L 64.000 175.370 L 68.000 213.089 L 72.000 250.362 L 76.000 285.868 L 80.000 318.351 L 84.000 346.658 L 88.000 369.787 L 92.000 386.920 L 96.000 397.448 L 100.000 401.000 L 104.000 397.448 L 108.000 386.920 L 112.000 369.787 L 116.000 346.658 L 119.999 318.350 L 123.999 285.868 L 127.999 250.362 L 131.999 213.089 L 135.999 175.370 L 139.999 138.542 L 143.999 103.908 L 147.999 72.696 L 151.999 46.012 L 155.999 24.800 L 159.999 9.813 L 163.999 1.581 L 167.999 0.395 L 171.999 6.298 L 175.999 19.081 L 179.999 38.291 L 183.999 63.247 L 187.999 93.066 L 191.999 126.690 L 195.999 162.929 L 199.999 200.499 L 203.999 238.069 L 207.999 274.308 L 211.999 307.932 L 215.999 337.751 L 219.999 362.707 L 223.999 381.917 L 227.999 394.700 L 231.999 400.604 L 235.999 399.419 L 239.999 391.187 L 243.999 376.199 L 247.999 354.988 L 251.999 328.304 L 255.999 297.092 L 259.999 262.458 L 263.999 225.630 L 267.999 187.911 L 271.999 150.638 L 275.999 115.132 L 279.999 82.650 L 283.999 54.342 L 287.999 31.212 L 291.999 14.080 L 295.999 3.551 L 299.999 0.000 L 303.999 3.551 L 307.999 14.079 L 311.999 31.211 L 315.999 54.340 L 319.999 82.647 L 323.999 115.129 L 327.999 150.635 L 331.999 187.908 L 335.999 225.627 L 339.999 262.456 L 343.999 297.090 L 347.999 328.301 L 351.999 354.986 L 355.999 376.198 L 359.999 391.186 L 363.999 399.418 L 367.999 400.604 L 371.999 394.701 L 375.999 381.918 L 379.999 362.709 L 383.999 337.753 L 387.999 307.935 L 391.999 274.311 L 395.999 238.072 L 399.999 200.502 L 403.999 162.932 L 407.999 126.693 L 411.999 93.068 L 415.999 63.249 L 419.999 38.293 L 423.999 19.083 L 427.999 6.299 L 431.999 0.395 L 435.999 1.580 L 439.999 9.812 L 443.999 24.799 L 447.999 46.010 L 451.999 72.694 L 455.999 103.906 L 459.999 138.539 L 463.999 175.367 L 467.999 213.086 L 471.999 250.359 L 475.999 285.866 L 479.999 318.348 L 483.999 346.656 L 487.999 369.786 L 491.999 386.919 L 495.999 397.448 L 499.999 401.000 L 503.999 397.449 L 507.999 386.921 L 511.999 369.789 L 515.999 346.660 L 519.999 318.353 L 523.999 285.871 L 527.999 250.365 L 531.999 213.092 L 535.999 175.373 L 539.999 138.545 L 543.999 103.911 L 547.999 72.699 L 551.999 46.014 L 555.999 24.802 L 559.999 9.814 L 563.999 1.581 L 567.999 0.395 L 571.999 6.298 L 575.999 19.080 L 579.999 38.289 L 583.999 63.245 L 587.999 93.063 L 591.999 126.687 L 595.999 162.926 L 599.999 200.496 L 603.999 238.066 L 607.999 274.305 L 611.999 307.929 L 615.999 337.748 L 619.999 362.705 L 623.999 381.916 L 627.999 394.699 L 631.999 400.604 L 635.999 399.419 L 639.999 391.188 L 643.999 376.201 L 647.999 354.990 L 651.999 328.306 L 655.999 297.095 L 659.999 262.462 L 663.999 225.633 L 667.999 187.914 L 671.999 150.642 L 675.999 115.135 L 679.999 82.652 L 683.999 54.344 L 687.999 31.214 L 691.999 14.081 L 695.999 3.552 L 699.999 0.000 L 703.999 3.550 L 707.999 14.077 L 711.999 31.209 L 715.999 54.338 L 719.999 82.645 L 723.999 115.126 L 727.999 150.632 L 731.999 187.905 L 735.999 225.624 L 739.999 262.453 L 743.999 297.087 L 747.999 328.299 L 751.999 354.984 L 755.999 376.196 L 759.999 391.185 L 763.999 399.418 L 767.999 400.604 L 771.999 394.702 L 775.999 381.920 L 779.999 362.711 L 783.999 337.755 L 787.999 307.937 L 791.999 274.313 L 795.999 238.075 " stroke="lime" fill="none" stroke-width="2"/>
</svg>
