<svg xmlns="http://www.w3.org/2000/svg" width="800" height="900" viewBox="0 0 800 900" style="background:#1e1e2e">
  <g transform="translate(0.000000,0.000000) scale(1.000000)">
    <path d="M 580.000 500.000 L 579.644 511.302 L 578.580 522.559 L 576.811 533.728 L 574.344 544.764 L 571.190 555.623 L 567.359 566.262 L 562.868 576.640 L 557.735 586.715 L 551.979 596.448 L 545.623 605.801 L 538.692 614.736 L 531.214 623.218 L 523.218 631.214 L 514.736 638.692 L 505.801 645.623 L 496.448 651.979 L 486.715 657.735 L 476.640 662.868 L 466.262 667.359 L 455.623 671.190 L 444.764 674.344 L 433.728 676.811 L 422.559 678.580 L 411.302 679.644 L 400.000 680.000 L 388.697 679.644 L 377.440 678.580 L 366.271 676.811 L 355.235 674.344 L 344.376 671.190 L 333.737 667.359 L 323.359 662.868 L 313.284 657.735 L 303.551 651.979 L 294.198 645.623 L 285.263 638.692 L 276.781 631.214 L 268.785 623.218 L 261.307 614.736 L 254.376 605.801 L 248.020 596.448 L 242.264 586.715 L 237.131 576.640 L 232.640 566.262 L 228.809 555.623 L 225.655 544.764 L 223.188 533.728 L 221.419 522.559 L 220.355 511.302 L 220.000 500.000 L 220.355 488.697 L 221.419 477.440 L 223.188 466.271 L 225.655 455.235 L 228.809 444.376 L 232.640 433.737 L 237.131 423.359 L 242.264 413.284 L 248.020 403.551 L 254.376 394.198 L 261.307 385.263 L 268.785 376.781 L 276.781 368.785 L 285.263 361.307 L 294.198 354.376 L 303.551 348.020 L 313.284 342.264 L 323.359 337.131 L 333.737 332.640 L 344.376 328.809 L 355.235 325.655 L 366.271 323.188 L 377.440 321.419 L 388.697 320.355 L 400.000 320.000 L 411.302 320.355 L 422.559 321.419 L 433.728 323.188 L 444.764 325.655 L 455.623 328.809 L 466.262 332.640 L 476.640 337.131 L 486.715 342.264 L 496.448 348.020 L 505.801 354.376 L 514.736 361.307 L 523.218 368.785 L 531.214 376.781 L 538.692 385.263 L 545.623 394.198 L 551.979 403.551 L 557.735 413.284 L 562.868 423.359 L 567.359 433.737 L 571.190 444.376 L 574.344 455.235 L 576.811 466.271 L 578.580 477.440 L 579.644 488.697 L 580.000 500.000 " transform="translate(0.000000,0.000000) scale(1.000000)" stroke="lime" fill="none" stroke-width="2"/>
    <path d="M 355.000 450.000 L 354.950 451.569 L 354.802 453.133 L 354.557 454.684 L 354.214 456.217 L 353.776 457.725 L 353.244 459.203 L 352.620 460.644 L 351.907 462.043 L 351.108 463.395 L 350.225 464.694 L 349.262 465.935 L 348.224 467.113 L 347.113 468.224 L 345.935 469.262 L 344.694 470.225 L 343.395 471.108 L 342.043 471.907 L 340.644 472.620 L 339.203 473.244 L 337.725 473.776 L 336.217 474.214 L 334.684 474.557 L 333.133 474.802 L 331.569 474.950 L 330.000 475.000 L 328.430 474.950 L 326.866 474.802 L 325.315 474.557 L 323.782 474.214 L 322.274 473.776 L 320.796 473.244 L 319.355 472.620 L 317.956 471.907 L 316.604 471.108 L 315.305 470.225 L 314.064 469.262 L 312.886 468.224 L 311.775 467.113 L 310.737 465.935 L 309.774 464.694 L 308.891 463.395 L 308.092 462.043 L 307.379 460.644 L 306.755 459.203 L 306.223 457.725 L 305.785 456.217 L 305.442 454.684 L 305.197 453.133 L 305.049 451.569 L 305.000 450.000 L 305.049 448.430 L 305.197 446.866 L 305.442 445.315 L 305.785 443.782 L 306.223 442.274 L 306.755 440.796 L 307.379 439.355 L 308.092 437.956 L 308.891 436.604 L 309.774 435.305 L 310.737 434.064 L 311.775 432.886 L 312.886 431.775 L 314.064 430.737 L 315.305 429.774 L 316.604 428.891 L 317.956 428.092 L 319.355 427.379 L 320.796 426.755 L 322.274 426.223 L 323.782 425.785 L 325.315 425.442 L 326.866 425.197 L 328.430 425.049 L 330.000 425.000 L 331.569 425.049 L 333.133 425.197 L 334.684 425.442 L 336.217 425.785 L 337.725 426.223 L 339.203 426.755 L 340.644 427.379 L 342.043 428.092 L 343.395 428.891 L 344.694 429.774 L 345.935 430.737 L 347.113 431.775 L 348.224 432.886 L 349.262 434.064 L 350.225 435.305 L 351.108 436.604 L 351.907 437.956 L 352.620 439.355 L 353.244 440.796 L 353.776 442.274 L 354.214 443.782 L 354.557 445.315 L 354.802 446.866 L 354.950 448.430 L 355.000 450.000 " transform="translate(0.000000,0.000000) scale(1.000000)" stroke="lime" fill="none" stroke-width="2"/>
    <path d="M 495.000 450.000 L 494.950 451.569 L 494.802 453.133 L 494.557 454.684 L 494.214 456.217 L 493.776 457.725 L 493.244 459.203 L 492.620 460.644 L 491.907 462.043 L 491.108 463.395 L 490.225 464.694 L 489.262 465.935 L 488.224 467.113 L 487.113 468.224 L 485.935 469.262 L 484.694 470.225 L 483.395 471.108 L 482.043 471.907 L 480.644 472.620 L 479.203 473.244 L 477.725 473.776 L 476.217 474.214 L 474.684 474.557 L 473.133 474.802 L 471.569 474.950 L 470.000 475.000 L 468.430 474.950 L 466.866 474.802 L 465.315 474.557 L 463.782 474.214 L 462.274 473.776 L 460.796 473.244 L 459.355 472.620 L 457.956 471.907 L 456.604 471.108 L 455.305 470.225 L 454.064 469.262 L 452.886 468.224 L 451.775 467.113 L 450.737 465.935 L 449.774 464.694 L 448.891 463.395 L 448.092 462.043 L 447.379 460.644 L 446.755 459.203 L 446.223 457.725 L 445.785 456.217 L 445.442 454.684 L 445.197 453.133 L 445.049 451.569 L 445.000 450.000 L 445.049 448.430 L 445.197 446.866 L 445.442 445.315 L 445.785 443.782 L 446.223 442.274 L 446.755 440.796 L 447.379 439.355 L 448.092 437.956 L 448.891 436.604 L 449.774 435.305 L 450.737 434.064 L 451.775 432.886 L 452.886 431.775 L 454.064 430.737 L 455.305 429.774 L 456.604 428.891 L 457.956 428.092 L 459.355 427.379 L 460.796 426.755 L 462.274 426.223 L 463.782 425.785 L 465.315 425.442 L 466.866 425.197 L 468.430 425.049 L 470.000 425.000 L 471.569 425.049 L 473.133 425.197 L 474.684 425.442 L 476.217 425.785 L 477.725 426.223 L 479.203 426.755 L 480.644 427.379 L 482.043 428.092 L 483.395 428.891 L 484.694 429.774 L 485.935 430.737 L 487.113 431.775 L 488.224 432.886 L 489.262 434.064 L 490.225 435.305 L 491.108 436.604 L 491.907 437.956 L 492.620 439.355 L 493.244 440.796 L 493.776 442.274 L 494.214 443.782 L 494.557 445.315 L 494.802 446.866 L 494.950 448.430 L 495.000 450.000 " transform="translate(0.000000,0.000000) scale(1.000000)" stroke="lime" fill="none" stroke-width="2"/>
    <path d="M 340.000 560.000 L 460.000 560.000 L 460.000 578.000 L 340.000 578.000 L 340.000 560.000 " transform="translate(0.000000,0.000000) scale(1.000000)" stroke="lime" fill="none" stroke-width="2"/>
    <path d="M 322.000 545.000 L 340.000 545.000 L 340.000 563.000 L 322.000 563.000 L 322.000 545.000 " transform="translate(0.000000,0.000000) scale(1.000000)" stroke="lime" fill="none" stroke-width="2"/>
    <path d="M 460.000 545.000 L 478.000 545.000 L 478.000 563.000 L 460.000 563.000 L 460.000 545.000 " transform="translate(0.000000,0.000000) scale(1.000000)" stroke="lime" fill="none" stroke-width="2"/>
    <path d="M 250.000 335.000 L 550.000 335.000 L 550.000 357.000 L 250.000 357.000 L 250.000 335.000 " transform="translate(0.000000,0.000000) scale(1.000000)" stroke="lime" fill="none" stroke-width="2"/>
    <path d="M 310.000 215.000 L 490.000 215.000 L 490.000 335.000 L 310.000 335.000 L 310.000 215.000 " transform="translate(0.000000,0.000000) scale(1.000000)" stroke="lime" fill="none" stroke-width="2"/>
    <path d="M 311.000 284.000 L 311.000 333.000 L 240.000 333.000 L 311.000 284.000 " transform="translate(0.000000,0.000000) scale(1.000000)" stroke="lime" fill="none" stroke-width="2"/>
    <path d="M 491.000 284.000 L 491.000 333.000 L 560.000 333.000 L 491.000 284.000 " transform="translate(0.000000,0.000000) scale(1.000000)" stroke="lime" fill="none" stroke-width="2"/>
    <path d="M 390.000 505.000 L 410.000 505.000 L 410.000 525.000 L 390.000 525.000 L 390.000 505.000 " transform="translate(0.000000,0.000000) scale(1.000000)" stroke="lime" fill="none" stroke-width="2"/>
  </g>
</svg>